<svg width="2844" height="320" viewBox="0 0 2844 320" fill="none" xmlns="http://www.w3.org/2000/svg">
<path d="M1572.97 213.6L1620.17 119.6L1666.97 213.6H1726.97L1620.17 0L1460.17 320H1519.37L1546.57 266.4L1572.97 213.6ZM1753.37 266.8H1694.17L1720.57 320H1780.17L1753.37 266.8Z" fill="white"/>
<path d="M1854.77 186.8C1865.97 186.8 1875.17 190.8 1883.17 198.8C1890.77 206.8 1895.17 216 1895.17 226.8C1895.17 232.4 1893.97 237.6 1891.97 242.4C1889.97 247.6 1887.17 251.6 1883.57 255.2C1879.97 258.8 1875.57 261.6 1870.37 263.6C1865.57 265.6 1860.37 266.4 1854.77 266.4V320C1880.77 320 1902.77 310.8 1920.77 292.8C1939.17 274.4 1948.37 252.4 1948.37 226.8C1948.37 201.2 1939.17 179.2 1920.77 160.8C1902.77 142.8 1880.77 133.6 1854.77 133.6H1775.17C1763.57 133.6 1754.37 129.6 1746.37 121.6C1738.77 113.6 1735.17 104.4 1735.17 93.2C1735.17 88 1735.97 82.8 1737.97 78C1739.97 73.2 1742.77 68.8 1746.37 65.2C1750.37 61.2 1754.37 58.4 1759.57 56.4C1764.37 54.4 1769.57 53.6 1775.17 53.6V0C1749.17 0 1727.17 9.2 1709.17 27.6C1691.17 46 1681.97 67.6 1681.97 93.2C1681.97 119.2 1691.17 141.2 1709.17 159.6C1727.17 177.6 1749.17 186.8 1775.17 186.8H1854.77Z" fill="white"/>
<path d="M1953.06 0V320H2006.66V53.6H2113.06V0H1953.06Z" fill="white"/>
<path d="M2114.39 315.6V320H2327.59V266.4H2167.59L2114.39 315.6ZM2114.39 0L2167.59 53.6H2358.9L2327.59 0H2114.39ZM2114.39 133.6V186.8H2327.59V133.6H2114.39Z" fill="white"/>
<path d="M2555.2 166.8C2568 148.8 2574 128.8 2574 106.4C2574 77.2 2563.6 52.4 2542.8 31.2C2522 10.4 2496.8 0 2467.6 0H2327.59L2327.8 53.6H2467.6C2482 53.6 2494.4 58.8 2504.8 69.2C2515.6 79.6 2520.8 92 2520.8 106.4C2520.8 121.2 2515.6 134 2504.8 144.4C2494.4 154.8 2482 160 2467.6 160L2420 159.6L2512.8 320H2574L2508.4 205.2C2527.2 197.6 2542.8 184.8 2555.2 166.8Z" fill="white"/>
<path d="M2749.8 186.8C2761 186.8 2770.2 190.8 2778.2 198.8C2785.8 206.8 2790.2 216 2790.2 226.8C2790.2 232.4 2789 237.6 2787 242.4C2785 247.6 2782.2 251.6 2778.6 255.2C2775 258.8 2770.6 261.6 2765.4 263.6C2760.6 265.6 2755.4 266.4 2749.8 266.4V320C2775.8 320 2797.8 310.8 2815.8 292.8C2834.2 274.4 2843.4 252.4 2843.4 226.8C2843.4 201.2 2834.2 179.2 2815.8 160.8C2797.8 142.8 2775.8 133.6 2749.8 133.6H2670.2C2658.6 133.6 2649.4 129.6 2641.4 121.6C2633.8 113.6 2630.2 104.4 2630.2 93.2C2630.2 88 2631 82.8 2633 78C2635 73.2 2637.8 68.8 2641.4 65.2C2645.4 61.2 2649.4 58.4 2654.6 56.4C2659.4 54.4 2664.6 53.6 2670.2 53.6V0C2644.2 0 2622.2 9.2 2604.2 27.6C2586.2 46 2577 67.6 2577 93.2C2577 119.2 2586.2 141.2 2604.2 159.6C2622.2 177.6 2644.2 186.8 2670.2 186.8H2749.8Z" fill="white"/>
<path fill-rule="evenodd" clip-rule="evenodd" d="M472.93 80.8L685.731 272.16V191.6L472.93 0V80.8Z" fill="white"/>
<path d="M685.731 0V191.6L738.931 320V0H685.731Z" fill="#E5AC7C"/>
<path fill-rule="evenodd" clip-rule="evenodd" d="M1495.28 128.8L1389.28 235.6L1282.08 128.8V52.8L1389.28 160L1559.9 0L1495.28 128.8Z" fill="white"/>
<path d="M1282.08 320V128.8L1229.28 0V320H1282.08Z" fill="#E5AC7C"/>
<path fill-rule="evenodd" clip-rule="evenodd" d="M918.9 266.4C934.9 266.4 949.7 263.2 963.3 257.2C976.9 250.8 988.9 242 999.3 230.4L1052.5 248C1045.3 258.8 1036.9 268.8 1026.9 277.6C1017.3 286.4 1006.9 294 995.3 300.4C984.1 306.8 972.1 311.6 958.9 314.8C946.1 318.4 932.9 320 918.9 320C874.5 320 837.3 304 806.1 272.8C774.9 241.6 758.9 204.4 758.9 160C758.9 116 774.5 78.4 806.1 47.2C836.9 15.6 874.5 0 918.9 0C940.9 0 961.7 4 981.3 12.4C1000.5 20.8 1017.7 32.4 1032.5 47.2L994.1 84.8C973.3 64 948.5 53.6 918.9 53.6C889.7 53.6 864.5 63.6 843.3 84.8C822.5 105.6 812.5 130.8 812.5 160C812.5 189.2 822.5 214.8 843.3 235.6C864.1 256.4 889.7 266.4 918.9 266.4Z" fill="white"/>
<path fill-rule="evenodd" clip-rule="evenodd" d="M420 0C375.6 0 338 16 307.2 47.2C276 78.4 260 116 260 160C260 204.4 276 241.6 307.2 272.8C338.4 304 375.6 320 420 320C464.4 320 501.6 304 532.8 272.8C549.159 256.856 561.336 239.089 569.278 219.5L524.784 179.596C521.182 200.629 511.503 219.297 495.2 235.6C474.4 256.4 449.2 266.4 420 266.4C390.8 266.4 365.2 256.4 344.4 235.6C323.6 214.8 313.6 189.2 313.6 160C313.6 130.8 323.6 105.6 344.4 84.8C365.6 63.6 390.8 53.6 420 53.6V0Z" fill="white"/>
<path fill-rule="evenodd" clip-rule="evenodd" d="M160 0C189.2 0 214.4 10.4 235.2 31.2C241.339 37.4574 246.573 44.0632 250.9 51.0176C250.9 51.0176 239.478 62.1753 227.4 81.5C217.4 97.5 211.94 118.5 211.94 118.5C212.775 114.777 213.2 110.88 213.2 106.8C213.2 92.4 208 79.6 197.2 69.2C186.8 58.8 174.4 53.6 160 53.6H53.2L0 0H160ZM211.94 200.316C211.94 200.316 206.9 180 206.9 162C206.9 140 211.94 118.5 211.94 118.5C209.748 128.284 204.733 136.867 197.2 144.4C186.8 154.8 174.4 160 160 160H0V320H53.2V213.6H160C179.054 213.6 196.404 209.172 211.94 200.316Z" fill="white"/>
<path d="M918.9 186.8H1018.7L1071.9 133.6H918.9V186.8Z" fill="url(#paint0_linear_101_847)"/>
<defs>
<linearGradient id="paint0_linear_101_847" x1="1071.9" y1="160" x2="971.9" y2="160" gradientUnits="userSpaceOnUse">
<stop stop-color="#E5AC7C" stop-opacity="0"/>
<stop offset="1" stop-color="#E5AC7C"/>
</linearGradient>
</defs>
</svg>
